<svg xmlns="http://www.w3.org/2000/svg" xmlns:xlink="http://www.w3.org/1999/xlink" preserveAspectRatio="xMidYMid" width="10" height="10" viewBox="0 0 8 8">
  <defs>
    <style>
      .cls-1 {
        fill: #6a696bd6;
        fill-rule: evenodd;
      }
    </style>
  </defs>
  <path d="M5.353,3.999 L7.719,1.631 C8.093,1.257 8.093,0.650 7.719,0.275 C7.345,-0.100 6.737,-0.100 6.364,0.275 L3.998,2.643 L1.632,0.275 C1.258,-0.100 0.651,-0.100 0.277,0.275 C-0.097,0.650 -0.097,1.257 0.277,1.631 L2.643,3.999 L0.277,6.365 C-0.097,6.740 -0.097,7.348 0.277,7.721 C0.464,7.908 0.710,8.002 0.955,8.002 C1.200,8.002 1.445,7.908 1.632,7.721 L3.998,5.355 L6.364,7.722 C6.550,7.908 6.796,8.002 7.041,8.002 C7.287,8.002 7.532,7.908 7.719,7.722 C8.093,7.348 8.093,6.740 7.719,6.365 L5.353,3.999 Z" class="cls-1"/>
</svg>


