<?xml version="1.0" encoding="utf-8"?>
<!-- Generator: Adobe Illustrator 26.4.1, SVG Export Plug-In . SVG Version: 6.00 Build 0)  -->
<svg version="1.1" id="Layer_1" width="120" height="38" xmlns="http://www.w3.org/2000/svg" xmlns:xlink="http://www.w3.org/1999/xlink" x="0px" y="0px"
	 viewBox="0 0 635.4 260" style="enable-background:new 0 0 635.4 260;" xml:space="preserve">
<style type="text/css">
	.st0{fill:none;}
	.st1{fill:#FFFFFF;}
</style>
<polygon id="XMLID_00000029733343425788763200000008840966213521244303_" class="st0" points="320.6,211.1 334.9,211.2 328,178 "/>
<path id="XMLID_00000130624200776413272230000014225651386818156439_" class="st1" d="M313,150.5l-24.1,92l24.7,0.1l3.1-13.8
	l22.1,0.1l2.8,13.8l25.3,0.1l-23.2-92.3L313,150.5z M320.6,211.1L328,178l6.9,33.2L320.6,211.1z"/>
<path id="XMLID_00000067930805022235402110000008206914821353038475_" class="st1" d="M633.2,170.7c-8.5,0-13.9,4.5-15.6,11.7
	l0.1-11.1l-24-0.1l-0.3,71.6l24.4,0.1l0.2-41.3c0-6.3,3.2-9.7,9.1-9.7l8.2,0l0.1-21.2L633.2,170.7z"/>
<path id="XMLID_00000116947438466525671320000003667235739407676816_" class="st1" d="M396.8,182.4l0.1-11.1l-24-0.1l-0.3,71.6
	l24.4,0.1l0.2-41.3c0-6.3,3.2-9.7,9.1-9.7l8.2,0l0.1-21.2l-2.2,0C403.9,170.6,398.4,175.2,396.8,182.4z"/>
<path id="XMLID_00000099655938546248169840000000560117872022426289_" class="st1" d="M494.8,171.2l-2.6,0c-7.2,0-12.6,3.5-14.3,9
	c-2.6-5.6-8-9.1-17.5-9.1l-2.6,0c-7.5,0-11.8,3.4-13.1,9.1l0-9.2l-24-0.1l-0.3,71.6l24.4,0.1l0.2-49.4c0-3,1.3-4.3,3.9-4.3l2.4,0
	c2.4,0,3.6,1,3.6,3.2l-0.2,50.5l24.4,0.1l0.2-49.4c0-3,1.3-4.3,3.9-4.3l2.4,0c2.4,0,3.6,1,3.6,3.2l-0.2,50.5l24.4,0.1l0.3-53.8
	C513.9,178.4,508.5,171.3,494.8,171.2z"/>
<path id="XMLID_00000067231480519510789550000001750936237294676917_" class="st1" d="M562.6,171.3l-18.2-0.1
	c-15.4-0.1-20.4,6.9-20.5,17.7l-0.2,36c-0.1,10.8,4.9,17.8,20.3,17.9l18.2,0.1c15.4,0.1,20.4-6.9,20.5-17.7l0.2-36
	C582.9,178.4,577.9,171.4,562.6,171.3z M558.8,222.8c0,2.2-1.2,3.2-3.6,3.1l-3.9,0c-2.4,0-3.6-1-3.6-3.2l0.1-31.4
	c0-2.2,1.2-3.2,3.6-3.1l3.9,0c2.4,0,3.6,1,3.6,3.2L558.8,222.8z"/>
<path id="XMLID_00000168831867354061910490000012431968465078212287_" class="st1" d="M367.9,42l24.4,0.1l-0.3,71.6l-24.4-0.1
	L367.9,42z M350.2,0.3v5.2h5.2V0.3H350.2z M359.3,39.6L359.2,66c-0.1,10.8-5.8,17.8-21.2,17.7l-17.5-0.1l-0.1,30.1l-25.1-0.1
	l0.4-92.1l42.6,0.2C353.7,21.8,359.4,28.8,359.3,39.6z M334.2,42.8c0-2.2-1.1-3.2-3.6-3.2l-9.9,0l-0.1,26.1l9.9,0
	c2.4,0,3.6-1,3.6-3.1L334.2,42.8z M355.4,14.9h9.5V5.4h-9.5V14.9z M526.1,60L526,84.4l-36.6-0.2l0,9.5c0,2.2,1.1,3.2,3.6,3.2l6.3,0
	c2.4,0,3.6-1.3,3.6-3.4l0-4l23.1,0.1l0,6.5c-0.1,10.8-5.8,17.8-21.2,17.7l-17.5-0.1c-15.4-0.1-21.1-7.1-21-17.9l0.2-36
	C466.5,49,472.3,42,487.6,42l17.5,0.1C520.5,42.2,526.2,49.3,526.1,60z M503,62.1c0-2.2-1.1-3.2-3.6-3.2l-6.3,0
	c-2.4,0-3.6,1-3.6,3.1l0,9l13.5,0.1L503,62.1z M367.6,17.6l25.3,0.1L392.8,35l-25.3-0.1L367.6,17.6z M370.2,29.8h9.5v-9.5h-9.5V29.8
	z M535.7,17.6l-0.5,96l24.4,0.1l0.5-96L535.7,17.6z M460.2,42.1L435.9,42l-6.3,19.9l-6.1-20l-25.5-0.1l17.1,35.1l-16.5,36.5
	l23.8,0.1l7.1-21.2l7.6,21.3l24.7,0.1l-17.6-37.1L460.2,42.1z"/>
<g id="XMLID_00000106832986323626017820000013310453347894783631_">
	<path id="XMLID_00000053507264492419777170000011317385971161065402_" class="st0" d="M232.7,45.8l-2.5-1.5
		C183.4,17.1,124.3,6.9,121.8,6.5l-1-0.2l-1,0.2c-2.5,0.4-61.5,10.6-108.4,37.8l-2.5,1.5l-0.5,2.9c-0.2,1-4.1,24.2-0.7,56.4
		c2.9,28.3,10.7,54.7,22.8,77.7C44.6,210,67,232.2,94.8,245c7.5,3.5,15.8,6.4,24.6,8.3l1.3,0.3l1.3-0.3c8.8-1.9,17.1-4.9,24.6-8.3
		c27.9-12.8,50.2-35,64.4-62.2c12.1-23.1,19.8-49.4,22.8-77.8c3.3-32.1-0.6-55.4-0.7-56.4L232.7,45.8z M199.4,190.9
		c-9.4,15.2-22,28.3-36.9,38.1c-11,7.2-25.4,14.7-41.8,18.2C104.4,243.7,90,236.3,79,229c-14.9-9.8-27.5-22.9-36.9-38.1
		C1.5,125.2,14.5,49.7,14.5,49.7c46.4-26.9,106.3-37,106.3-37s59.9,10.1,106.3,37C227.1,49.7,240,125.2,199.4,190.9z"/>
	<rect id="XMLID_00000058583592777760875700000005092341422403644325_" x="83.6" y="73.7" class="st1" width="9.1" height="9.1"/>
	<path id="XMLID_00000008840649969840308260000000766664674703233959_" class="st1" d="M120.8,12.7c0,0-59.9,10.1-106.3,37
		c0,0-13,75.5,27.6,141.2c9.4,15.2,22,28.3,36.9,38.1c11,7.2,25.4,14.7,41.8,18.2c16.4-3.5,30.8-10.9,41.8-18.2
		c14.9-9.8,27.5-22.9,36.9-38.1c40.6-65.7,27.6-141.2,27.6-141.2C180.7,22.8,120.8,12.7,120.8,12.7z M77.6,67.6h-9.1v-9.1h-5v-5h5v5
		h9.1V67.6z M161,187.2h-31.7v-28.9l4.9,0c0.1,0,0.2,0,0.3,0c11.5,0,20.4-3,26.5-8.5V187.2z M161,126.9
		c-0.1,13.6-7.4,22.4-26.8,22.3l-22.2-0.1v38.1L80.6,187v-84.5h29.9c1,0,1.8,0.8,1.8,1.8l-0.1,20.3c0,1,0.8,1.8,1.8,1.8l10.7,0
		c3.1,0,4.5-1.2,4.5-4l0.1-25c0-2.7-1.4-4-4.5-4l-44.3-0.1V70.7l54,0.3c19.4,0.1,26.6,9,26.5,22.6L161,126.9z"/>
	<path id="XMLID_00000132056125447045221360000002223795490225628836_" class="st1" d="M239.4,47.6l-1-5.8l-5.1-2.9
		c-47.8-27.7-108-38.1-110.5-38.5L120.8,0l-2.1,0.4C116.2,0.8,56,11.2,8.2,38.9l-5.1,2.9l-1,5.8C2,48.6-2,72.7,1.4,105.7
		c3.4,32.5,13,62.5,28.1,88.2c11.1,19,26.5,35.2,45,47c11.8,7.5,26.8,14.9,43.7,18.5l2.6,0.6l2.6-0.6c16.9-3.6,31.9-11,43.7-18.5
		c18.6-11.8,33.9-28,45-47c15-25.7,24.7-55.8,28.1-88.2C243.6,72.7,239.6,48.6,239.4,47.6z M234,105c-2.9,28.3-10.7,54.7-22.8,77.8
		C197,210,174.6,232.2,146.7,245c-7.5,3.5-15.8,6.4-24.6,8.3l-1.3,0.3l-1.3-0.3c-8.8-1.9-17.1-4.9-24.6-8.3
		C67,232.2,44.6,210,30.4,182.8C18.3,159.7,10.5,133.3,7.6,105C4.3,72.9,8.2,49.6,8.3,48.7l0.5-2.9l2.5-1.5
		C58.2,17.1,117.2,6.9,119.7,6.5l1-0.2l1,0.2c2.5,0.4,61.5,10.6,108.4,37.8l2.5,1.5l0.5,2.9C233.4,49.6,237.3,72.9,234,105z"/>
</g>
</svg>
