<svg xmlns="http://www.w3.org/2000/svg" version="1.1" xmlns:xlink="http://www.w3.org/1999/xlink" xmlns:svgjs="http://svgjs.com/svgjs" width="45px" height="45px" x="0" y="0" viewBox="0 0 24 24" style="enable-background:new 0 0 512 512" xml:space="preserve" class="">
    <g>
        <path xmlns="http://www.w3.org/2000/svg" d="m12 1a11 11 0 1 0 11 11 11.013 11.013 0 0 0 -11-11zm0 20a9 9 0 1 1 9-9 9.01 9.01 0 0 1 -9 9z" fill="#f7495f" data-original="#000000" class=""></path>
        <path xmlns="http://www.w3.org/2000/svg" d="m16.242 7.757a1 1 0 0 0 -1.414 0l-2.828 2.829-2.828-2.829a1 1 0 1 0 -1.414 1.414l2.828 2.829-2.828 2.829a1 1 0 1 0 1.414 1.414l2.828-2.829 2.828 2.829a1 1 0 1 0 1.414-1.414l-2.828-2.829 2.828-2.829a1 1 0 0 0 0-1.414z" fill="#f7495f" data-original="#000000" class=""></path>
    </g>
</svg>