<svg width="150" height="121" viewBox="0 0 150 121" fill="none" xmlns="http://www.w3.org/2000/svg">
<path d="M97.1997 102.733C97.1997 102.733 -0.153516 109.052 0.0128906 106.773H0V114.995C0 117.827 2.296 120.123 5.12842 120.123H103.204L97.1997 102.733Z" fill="#EFE7E4"/>
<path d="M97.1997 85.7439H13.6254C12.7139 85.7439 11.8199 85.9937 11.0405 86.4662C10.261 86.9388 9.62604 87.6159 9.20448 88.424L0.475474 105.158C-0.960658 107.91 1.03651 111.205 4.14139 111.205H103.204L97.1997 85.7439ZM84.3056 120.123H65.6944C62.7565 120.123 60.3747 117.742 60.3747 114.803V111.205H89.625V114.803C89.625 117.741 87.2434 120.123 84.3056 120.123Z" fill="#DAD0CB"/>
<path d="M97.1997 102.733H52.5993C52.3499 102.733 52.106 102.806 51.8981 102.944C51.6902 103.082 51.5275 103.278 51.4304 103.508L48.9205 109.441C48.5666 110.278 49.1809 111.205 50.0894 111.205H103.204L97.1997 102.733Z" fill="#F9F6F6"/>
<path d="M139.397 30.8049V5.35474C139.397 2.40513 137.006 0.013916 134.056 0.013916H15.9437C12.994 0.013916 10.6025 2.40513 10.6025 5.35474V80.4042C10.6025 83.3541 12.9938 85.7454 15.9437 85.7454H97.1994L139.397 30.8049Z" fill="#EFE7E4"/>
<path d="M131.932 30.805V9.43032C131.932 9.18456 131.884 8.9412 131.79 8.71414C131.696 8.48708 131.558 8.28077 131.384 8.10698C131.21 7.9332 131.004 7.79535 130.777 7.7013C130.55 7.60725 130.306 7.55884 130.061 7.55884H19.9392C19.6934 7.55884 19.45 7.60725 19.223 7.7013C18.9959 7.79535 18.7896 7.9332 18.6158 8.10698C18.442 8.28077 18.3042 8.48708 18.2101 8.71414C18.1161 8.9412 18.0677 9.18456 18.0677 9.43032V73.9139C18.0677 74.4103 18.2649 74.8863 18.6158 75.2373C18.9668 75.5882 19.4428 75.7854 19.9392 75.7854H97.1994L131.932 30.805Z" fill="#9DC6FB"/>
<path d="M92.5895 69.749H18.068V73.9139C18.068 74.4102 18.2651 74.8862 18.6161 75.2372C18.9671 75.5882 19.4431 75.7854 19.9394 75.7854H101.994L97.2 69.3608C95.6768 69.6197 94.1345 69.7496 92.5895 69.749ZM130.061 7.55908H119.86V36.0869L131.932 30.8053V9.43027C131.932 9.18453 131.884 8.9412 131.79 8.71416C131.696 8.48711 131.558 8.28082 131.384 8.10706C131.21 7.93329 131.004 7.79546 130.777 7.70144C130.55 7.60742 130.307 7.55904 130.061 7.55908Z" fill="#80B4FB"/>
<path d="M97.1997 93.6174H17.8239C17.6465 93.6174 17.4726 93.6673 17.3221 93.7614C17.1716 93.8555 17.0506 93.9899 16.9728 94.1495L13.4531 101.371C13.1467 102 13.6046 102.733 14.3042 102.733H101.994L97.1997 93.6174Z" fill="#544F57"/>
<path d="M150 36.8099C150 33.4935 147.311 30.8049 143.995 30.8049H103.204C99.888 30.8049 97.1994 33.4935 97.1994 36.8099V114.118C97.1994 117.435 99.888 120.123 103.204 120.123H143.995C147.311 120.123 150 117.435 150 114.118V36.8099Z" fill="#756E78"/>
<path d="M131.895 38.3504C131.483 38.3504 131.15 38.6688 131.11 39.0793C130.743 42.9043 127.521 45.8955 123.6 45.8955C119.679 45.8955 116.456 42.9043 116.089 39.0793C116.05 38.6688 115.716 38.3504 115.304 38.3504H105.533C105.324 38.3504 105.124 38.4335 104.976 38.5814C104.828 38.7293 104.745 38.9299 104.745 39.1391V111.79C104.745 111.999 104.828 112.2 104.976 112.347C105.124 112.495 105.324 112.578 105.533 112.578H141.666C141.875 112.578 142.076 112.495 142.224 112.347C142.372 112.2 142.455 111.999 142.455 111.79V39.1388C142.455 38.9296 142.372 38.729 142.224 38.5811C142.076 38.4332 141.875 38.3501 141.666 38.3501H131.895V38.3504Z" fill="#F9F6F6"/>
<path d="M141.666 38.3503H131.895C131.483 38.3503 131.15 38.6688 131.11 39.0792C131.024 39.976 130.778 40.8501 130.382 41.6594V94.6642C130.382 101.224 125.064 106.542 118.504 106.542H104.745V111.789C104.745 111.893 104.765 111.996 104.805 112.091C104.844 112.187 104.902 112.274 104.976 112.347C105.049 112.42 105.136 112.478 105.231 112.518C105.327 112.558 105.43 112.578 105.533 112.578H141.666C141.769 112.578 141.872 112.558 141.968 112.518C142.063 112.478 142.15 112.42 142.224 112.347C142.297 112.274 142.355 112.187 142.395 112.091C142.434 111.996 142.455 111.893 142.455 111.789V39.1387C142.455 38.9296 142.372 38.7291 142.224 38.5813C142.076 38.4334 141.875 38.3503 141.666 38.3503Z" fill="#F6F1F1"/>
<path d="M123.6 40.6139C124.85 40.6139 125.863 39.6005 125.863 38.3504C125.863 37.1003 124.85 36.0869 123.6 36.0869C122.35 36.0869 121.336 37.1003 121.336 38.3504C121.336 39.6005 122.35 40.6139 123.6 40.6139Z" fill="#ECF4FF"/>
</svg>
