<svg width="21" height="17" viewBox="0 0 21 17" fill="none" xmlns="http://www.w3.org/2000/svg">
<path d="M19.1377 6.62222L13.1269 9.38813C12.407 9.71945 11.6299 9.89111 10.8529 9.89111C10.0758 9.89111 9.30979 9.71945 8.58994 9.38813L2.56714 6.61115L0.853333 5.823V12.4974C0.853822 13.6339 1.30553 14.7238 2.10919 15.5274C2.91285 16.3311 4.0027 16.7828 5.13924 16.7833H16.5674C17.704 16.7828 18.7938 16.3311 19.5975 15.5274C20.4011 14.7238 20.8528 13.6339 20.8533 12.4974V5.835L19.1395 6.62315L19.1377 6.62222Z" fill="#0379FF"/>
<path d="M9.29872 7.83391C9.78769 8.05964 10.3198 8.17655 10.8584 8.17655C11.397 8.17655 11.9291 8.05964 12.4181 7.83391L19.1377 4.73668L20.8063 3.97068V3.9596C20.6622 2.93805 20.1538 2.003 19.3746 1.3268C18.5955 0.650596 17.5982 0.278832 16.5665 0.280032H5.13924C4.10812 0.280763 3.11182 0.653207 2.33308 1.32906C1.55434 2.00491 1.04535 2.93885 0.899475 3.9596L2.56806 4.7256L9.29872 7.83391Z" fill="#0379FF"/>
</svg>
