<svg width="250" height="250" viewBox="0 0 250 250" fill="none" xmlns="http://www.w3.org/2000/svg">
<g clip-path="url(#clip0_546_15)">
<path d="M121.691 10.4639H27.6528C15.0771 10.4639 4.88281 20.6011 4.88281 33.1064V201.23C4.88281 213.735 15.0771 223.873 27.6528 223.873H136.3C148.876 223.873 159.07 213.735 159.07 201.23V53.6709L121.691 10.4639Z" fill="white"/>
<path d="M159.07 73.5806C157.777 73.5158 156.484 73.4834 155.189 73.4834C134.893 73.4834 115.816 81.4009 101.474 95.7773C71.9419 125.382 71.9419 173.551 101.474 203.156C111.912 213.619 124.858 220.661 138.957 223.719C150.281 222.411 159.07 212.841 159.07 201.23V73.5806ZM121.691 53.6709H159.07L121.691 10.4639V53.6709Z" fill="#D2DCFD"/>
<path d="M98.1807 178.869L93.478 193.724H41.2046V164.014H80.7163L94.5986 170.52L98.1807 178.869Z" fill="#FDCB50"/>
<path d="M93.478 193.724H126.523V164.014H80.7163C82.7471 174.523 87.001 184.682 93.478 193.724Z" fill="#FD8F01"/>
<path d="M155.189 203.548C184.985 203.548 209.139 179.335 209.139 149.467C209.139 119.598 184.985 95.3853 155.189 95.3853C125.393 95.3853 101.239 119.598 101.239 149.467C101.239 179.335 125.393 203.548 155.189 203.548Z" fill="#67CCD1"/>
<path d="M241.99 236.395C237.815 240.58 231.039 240.584 226.859 236.403L199.166 208.703L214.281 193.551L241.982 221.259C246.159 225.438 246.163 232.212 241.99 236.395Z" fill="#FD7DA0"/>
<path d="M159.07 94.1738V53.6709L121.691 10.4639H27.6528C15.0771 10.4639 4.88281 20.6011 4.88281 33.1064V201.23C4.88281 213.735 15.0771 223.873 27.6528 223.873H136.3C147.752 223.873 157.229 215.466 158.832 204.52" stroke="#052A75" stroke-width="20" stroke-miterlimit="10" stroke-linecap="round" stroke-linejoin="round"/>
<path d="M41.2046 109.495H117.424M41.2046 134.221H102.639M41.2046 84.7686H126.522M41.2046 60.042H90.5854" stroke="#FD6050" stroke-width="20" stroke-miterlimit="10" stroke-linecap="round" stroke-linejoin="round"/>
<path d="M155.189 203.548C184.985 203.548 209.139 179.335 209.139 149.467C209.139 119.598 184.985 95.3853 155.189 95.3853C125.393 95.3853 101.239 119.598 101.239 149.467C101.239 179.335 125.393 203.548 155.189 203.548Z" stroke="#052A75" stroke-width="20" stroke-miterlimit="10" stroke-linecap="round" stroke-linejoin="round"/>
<path d="M194.275 188.648L205.565 199.965M241.99 236.395C237.815 240.58 231.039 240.584 226.859 236.403L199.166 208.703L214.281 193.551L241.982 221.259C246.159 225.437 246.163 232.212 241.99 236.395Z" stroke="#052A75" stroke-width="20" stroke-miterlimit="10" stroke-linecap="round" stroke-linejoin="round"/>
<path d="M168.516 136.058L141.862 162.876M168.516 162.876L141.862 136.058" stroke="white" stroke-width="20" stroke-miterlimit="10" stroke-linecap="round" stroke-linejoin="round"/>
</g>
<defs>
<clipPath id="clip0_546_15">
<rect width="250" height="250" fill="white"/>
</clipPath>
</defs>
</svg>
